<mxfile host="Electron" modified="2024-01-19T03:24:42.148Z" agent="Mozilla/5.0 (X11; Linux x86_64) AppleWebKit/537.36 (KHTML, like Gecko) draw.io/22.1.16 Chrome/120.0.6099.109 Electron/28.1.0 Safari/537.36" etag="b3RleZIQMqN_C-iUyf2P" version="22.1.16" type="device">
  <diagram name="Page-1" id="UgkzKDdlbD2YLOSZ790F">
    <mxGraphModel dx="-517" dy="211" grid="1" gridSize="10" guides="1" tooltips="1" connect="1" arrows="1" fold="1" page="1" pageScale="1" pageWidth="850" pageHeight="1100" math="0" shadow="0">
      <root>
        <mxCell id="0" />
        <mxCell id="1" parent="0" />
        <mxCell id="ce8JXZ0sOefDhEw3IZX--10" value="" style="group" parent="1" vertex="1" connectable="0">
          <mxGeometry x="980" y="480" width="480" height="200" as="geometry" />
        </mxCell>
        <mxCell id="ce8JXZ0sOefDhEw3IZX--1" value="&lt;p style=&quot;margin:0px;margin-top:4px;text-align:center;&quot;&gt;&lt;font color=&quot;#666666&quot;&gt;&lt;b style=&quot;&quot;&gt;Location - North Sector&lt;/b&gt;&lt;/font&gt;&lt;/p&gt;&lt;hr size=&quot;1&quot;&gt;&lt;p style=&quot;margin:0px;margin-left:4px;&quot;&gt;&lt;font color=&quot;#666666&quot;&gt;Required:&lt;br&gt;&amp;nbsp;+ 1&amp;nbsp; temperature component&amp;nbsp;&lt;/font&gt;&lt;/p&gt;&lt;p style=&quot;margin:0px;margin-left:4px;&quot;&gt;&lt;font color=&quot;#666666&quot;&gt;&lt;span style=&quot;white-space: pre;&quot;&gt;&#x9;&lt;/span&gt;reporting every 30 seconds&lt;br&gt;&amp;nbsp;+ 3&amp;nbsp; wind-speed component&amp;nbsp;&lt;/font&gt;&lt;/p&gt;&lt;p style=&quot;margin:0px;margin-left:4px;&quot;&gt;&lt;font color=&quot;#666666&quot;&gt;&lt;span style=&quot;white-space: pre;&quot;&gt;&#x9;&lt;/span&gt;reporting every 60 seconds&lt;br&gt;&lt;br&gt;Optional:&lt;/font&gt;&lt;/p&gt;&lt;p style=&quot;margin:0px;margin-left:4px;&quot;&gt;&lt;font color=&quot;#666666&quot;&gt;&lt;br&gt;&lt;/font&gt;&lt;/p&gt;&lt;p style=&quot;margin:0px;margin-left:4px;&quot;&gt;&lt;font color=&quot;#666666&quot;&gt;&amp;nbsp;+ 3 Particulate Matter components&lt;br&gt;&amp;nbsp; &amp;nbsp; &amp;nbsp; &amp;nbsp;reporting every 120 seconds&lt;/font&gt;&lt;/p&gt;" style="verticalAlign=top;align=left;overflow=fill;fontSize=12;fontFamily=Helvetica;html=1;whiteSpace=wrap;strokeColor=#666666;fontColor=#333333;fillColor=#ffffff;labelBackgroundColor=none;strokeWidth=3;" parent="ce8JXZ0sOefDhEw3IZX--10" vertex="1">
          <mxGeometry width="220" height="200" as="geometry" />
        </mxCell>
        <mxCell id="ce8JXZ0sOefDhEw3IZX--9" value="&lt;p style=&quot;margin:0px;margin-top:4px;text-align:center;&quot;&gt;&lt;font color=&quot;#666666&quot;&gt;&lt;b style=&quot;&quot;&gt;Location - South Sector&lt;/b&gt;&lt;/font&gt;&lt;/p&gt;&lt;hr size=&quot;1&quot;&gt;&lt;p style=&quot;margin:0px;margin-left:4px;&quot;&gt;&lt;font color=&quot;#666666&quot;&gt;Required:&lt;br&gt;&amp;nbsp;+ 1&amp;nbsp; temperature component&amp;nbsp;&lt;/font&gt;&lt;/p&gt;&lt;p style=&quot;margin:0px;margin-left:4px;&quot;&gt;&lt;font color=&quot;#666666&quot;&gt;&lt;span style=&quot;white-space: pre;&quot;&gt;&#x9;&lt;/span&gt;reporting every 30 seconds&lt;br&gt;&amp;nbsp;+ 3&amp;nbsp; wind-speed component&amp;nbsp;&lt;/font&gt;&lt;/p&gt;&lt;p style=&quot;margin:0px;margin-left:4px;&quot;&gt;&lt;font color=&quot;#666666&quot;&gt;&lt;span style=&quot;white-space: pre;&quot;&gt;&#x9;&lt;/span&gt;reporting every 60 seconds&lt;br&gt;&lt;br&gt;Optional:&lt;/font&gt;&lt;/p&gt;&lt;p style=&quot;margin:0px;margin-left:4px;&quot;&gt;&lt;font color=&quot;#666666&quot;&gt;&lt;br&gt;&lt;/font&gt;&lt;/p&gt;&lt;p style=&quot;margin:0px;margin-left:4px;&quot;&gt;&lt;font color=&quot;#666666&quot;&gt;&amp;nbsp;+ 3 Particulate Matter components&lt;br&gt;&amp;nbsp; &amp;nbsp; &amp;nbsp; &amp;nbsp;reporting every 120 seconds&lt;/font&gt;&lt;/p&gt;" style="verticalAlign=top;align=left;overflow=fill;fontSize=12;fontFamily=Helvetica;html=1;whiteSpace=wrap;strokeColor=#666666;fontColor=#333333;fillColor=#ffffff;labelBackgroundColor=none;strokeWidth=3;" parent="ce8JXZ0sOefDhEw3IZX--10" vertex="1">
          <mxGeometry x="260" width="220" height="200" as="geometry" />
        </mxCell>
      </root>
    </mxGraphModel>
  </diagram>
</mxfile>
